<svg width="18" height="18" viewBox="0 0 18 18" fill="none" xmlns="http://www.w3.org/2000/svg">
<path d="M0 4.5C0 3.90326 0.237053 3.33097 0.65901 2.90901C1.08097 2.48705 1.65326 2.25 2.25 2.25H15.75C16.3467 2.25 16.919 2.48705 17.341 2.90901C17.7629 3.33097 18 3.90326 18 4.5V5.625H0V4.5ZM0 7.875V13.5C0 14.0967 0.237053 14.669 0.65901 15.091C1.08097 15.5129 1.65326 15.75 2.25 15.75H15.75C16.3467 15.75 16.919 15.5129 17.341 15.091C17.7629 14.669 18 14.0967 18 13.5V7.875H0ZM3.375 10.125H4.5C4.79837 10.125 5.08452 10.2435 5.29549 10.4545C5.50647 10.6655 5.625 10.9516 5.625 11.25V12.375C5.625 12.6734 5.50647 12.9595 5.29549 13.1705C5.08452 13.3815 4.79837 13.5 4.5 13.5H3.375C3.07663 13.5 2.79048 13.3815 2.5795 13.1705C2.36853 12.9595 2.25 12.6734 2.25 12.375V11.25C2.25 10.9516 2.36853 10.6655 2.5795 10.4545C2.79048 10.2435 3.07663 10.125 3.375 10.125V10.125Z" fill="white"/>
</svg>
