<svg width="18" height="18" viewBox="0 0 18 18" fill="none" xmlns="http://www.w3.org/2000/svg">
<path d="M9 0.75C6.67378 0.75 4.78125 2.60047 4.78125 4.875V7.35H3.9375C3.48995 7.35 3.06072 7.52384 2.74426 7.83327C2.42779 8.14271 2.25 8.56239 2.25 9V15.6C2.25 16.0376 2.42779 16.4573 2.74426 16.7667C3.06072 17.0762 3.48995 17.25 3.9375 17.25H14.0625C14.5101 17.25 14.9393 17.0762 15.2557 16.7667C15.5722 16.4573 15.75 16.0376 15.75 15.6V9C15.75 8.56239 15.5722 8.14271 15.2557 7.83327C14.9393 7.52384 14.5101 7.35 14.0625 7.35H13.2188V4.875C13.2188 2.60047 11.3262 0.75 9 0.75ZM6.46875 4.875C6.46875 3.51045 7.60444 2.4 9 2.4C10.3956 2.4 11.5312 3.51045 11.5312 4.875V7.35H6.46875V4.875ZM9.84375 13.7215V15.6H8.15625V13.7215C7.86126 13.5563 7.6244 13.3076 7.47689 13.0081C7.32938 12.7087 7.27815 12.3726 7.32995 12.0441C7.38176 11.7156 7.53417 11.4101 7.76708 11.168C8 10.926 8.30248 10.7586 8.63466 10.6879C8.88138 10.6346 9.13721 10.6361 9.38327 10.6923C9.62933 10.7485 9.85935 10.858 10.0564 11.0127C10.2534 11.1674 10.4124 11.3634 10.5216 11.5862C10.6308 11.809 10.6875 12.0529 10.6875 12.3C10.687 12.5885 10.6088 12.8719 10.4606 13.1214C10.3125 13.371 10.0997 13.5779 9.84375 13.7215V13.7215Z" fill="white"/>
</svg>
