<svg width="18" height="18" viewBox="0 0 18 18" fill="none" xmlns="http://www.w3.org/2000/svg">
<path fill-rule="evenodd" clip-rule="evenodd" d="M15.1877 9.00005V9.42755L16.2508 10.4007C16.4471 10.5727 16.5774 10.8077 16.6195 11.0652C16.6615 11.3228 16.6127 11.587 16.4815 11.8125L15.199 14.0625C15.1003 14.2334 14.9585 14.3753 14.7877 14.474C14.6169 14.5728 14.4231 14.6248 14.2258 14.625C14.1036 14.626 13.982 14.607 13.8658 14.5688L12.5046 14.1075C12.2667 14.2644 12.0186 14.4053 11.7621 14.5294L11.4752 15.9469C11.4238 16.2059 11.2829 16.4385 11.0772 16.6041C10.8715 16.7697 10.6142 16.8576 10.3502 16.8525H7.6952C7.43122 16.8576 7.17387 16.7697 6.9682 16.6041C6.76253 16.4385 6.62164 16.2059 6.5702 15.9469L6.28333 14.5294C6.02861 14.4053 5.78244 14.2644 5.54645 14.1075L4.17958 14.5688C4.06343 14.607 3.94184 14.626 3.81958 14.625C3.6223 14.6248 3.42853 14.5728 3.25773 14.474C3.08693 14.3753 2.94509 14.2334 2.84645 14.0625L1.51895 11.8125C1.38164 11.5848 1.32947 11.3157 1.37169 11.0531C1.41391 10.7906 1.54779 10.5514 1.74958 10.3782L2.8127 9.43317V8.57255L1.74958 7.59942C1.55333 7.42737 1.42302 7.19244 1.38094 6.93486C1.33887 6.67729 1.38766 6.4131 1.51895 6.18755L2.84645 3.93755C2.94509 3.76669 3.08693 3.62478 3.25773 3.52606C3.42853 3.42733 3.6223 3.37525 3.81958 3.37505C3.94061 3.36681 4.06218 3.37821 4.17958 3.4088L5.51833 3.89255C5.75625 3.73569 6.00429 3.59476 6.26083 3.47067L6.5477 2.05317C6.59914 1.7942 6.74003 1.56157 6.9457 1.396C7.15137 1.23044 7.40872 1.14249 7.6727 1.14755H10.3052C10.5692 1.14249 10.8265 1.23044 11.0322 1.396C11.2379 1.56157 11.3788 1.7942 11.4302 2.05317L11.7171 3.47067C11.9718 3.59479 12.218 3.73573 12.454 3.89255L13.8208 3.4313C13.937 3.39311 14.0586 3.37411 14.1808 3.37505C14.3781 3.37525 14.5719 3.42733 14.7427 3.52606C14.9135 3.62478 15.0553 3.76669 15.154 3.93755L16.4815 6.18755C16.6207 6.41344 16.6757 6.68129 16.6365 6.94377C16.5974 7.20625 16.4668 7.44645 16.2677 7.62192L15.1877 8.56692V9.00005ZM7.12516 11.8062C7.68017 12.1771 8.33269 12.375 9.00021 12.375C9.44467 12.3795 9.88557 12.2953 10.2971 12.1273C10.7086 11.9593 11.0824 11.7108 11.3967 11.3965C11.711 11.0822 11.9595 10.7084 12.1275 10.2969C12.2955 9.88537 12.3797 9.44447 12.3752 9C12.3752 8.33249 12.1773 7.67997 11.8064 7.12495C11.4356 6.56994 10.9085 6.13735 10.2918 5.88191C9.67506 5.62646 8.99646 5.55963 8.34178 5.68985C7.68709 5.82008 7.08572 6.14151 6.61372 6.61352C6.14172 7.08552 5.82028 7.68689 5.69006 8.34157C5.55983 8.99626 5.62667 9.67486 5.88211 10.2916C6.13756 10.9083 6.57014 11.4354 7.12516 11.8062Z" fill="white"/>
</svg>
